<svg xmlns="http://www.w3.org/2000/svg" xmlns:xlink="http://www.w3.org/1999/xlink" width="40.03" height="40" viewBox="0 0 40.03 40">
  <defs>
    <clipPath id="clip-path">
      <rect id="Rectangle_4459" data-name="Rectangle 4459" width="40.03" height="40" fill="none"/>
    </clipPath>
  </defs>
  <g id="Group_11769" data-name="Group 11769" transform="translate(0 0)">
    <path id="Path_1082" data-name="Path 1082" d="M130.435,0l-2.42,11.415h1.556L131.991,0Z" transform="translate(-112.738 0)" fill="#4abab9"/>
    <g id="Group_11768" data-name="Group 11768" transform="translate(0 0)">
      <g id="Group_11767" data-name="Group 11767" clip-path="url(#clip-path)">
        <path id="Path_1083" data-name="Path 1083" d="M2.173,0A2.173,2.173,0,0,0,0,2.173v9.242H13.471L15.891,0Zm2.62,7.665A1.957,1.957,0,1,1,6.75,5.708,1.957,1.957,0,0,1,4.793,7.665m5.238,0a1.957,1.957,0,1,1,1.957-1.957,1.957,1.957,0,0,1-1.957,1.957" fill="#4abab9"/>
        <path id="Path_1084" data-name="Path 1084" d="M175.407,0h-16.8l-2.42,11.415H177.58V2.173A2.173,2.173,0,0,0,175.407,0m-8.753,9.524h-7.889a.85.85,0,0,1,0-1.7h7.889a.85.85,0,1,1,0,1.7m3.371,0a1.492,1.492,0,1,1,1.492-1.492,1.492,1.492,0,0,1-1.492,1.492m5.447,0H173.4a.85.85,0,1,1,0-1.7h2.076a.85.85,0,1,1,0,1.7" transform="translate(-137.55)" fill="#4abab9"/>
        <path id="Path_1085" data-name="Path 1085" d="M161.583,156.372l3.865-1.719a1.449,1.449,0,0,0-.072-2.677L147.116,145a1.449,1.449,0,0,0-1.87,1.87l6.969,18.242a1.449,1.449,0,0,0,2.679.066l1.7-3.866,5.979,5.979a1.087,1.087,0,0,0,1.537,0l3.427-3.427a1.087,1.087,0,0,0,0-1.537Z" transform="translate(-127.826 -127.609)" fill="#00172e"/>
      </g>
    </g>
  </g>
</svg>
