<svg xmlns="http://www.w3.org/2000/svg" xmlns:xlink="http://www.w3.org/1999/xlink" width="37.298" height="40" viewBox="0 0 37.298 40">
  <defs>
    <clipPath id="clip-path">
      <rect width="37.298" height="40" fill="none"/>
    </clipPath>
  </defs>
  <g id="Repeat_Grid_1" data-name="Repeat Grid 1" clip-path="url(#clip-path)">
    <g id="Group_11771" data-name="Group 11771">
      <g id="Group_11771-2" data-name="Group 11771" clip-path="url(#clip-path)">
        <path id="Path_1086" data-name="Path 1086" d="M13.657,11.155a3.642,3.642,0,0,0,2.692,6.5,3.631,3.631,0,0,0,3.168-3.765,3.584,3.584,0,0,0-3.469-3.473.988.988,0,0,1-.9-.5A9.071,9.071,0,0,0,9.2,6.058c-.13-.025-.26-.054-.388-.088-.032-.008-.057-.043-.117-.089a10.707,10.707,0,0,1,4.6-4.57A11.4,11.4,0,0,1,29.87,9.647,11.408,11.408,0,0,1,18.936,22.683c-3.851.04-7.7.028-11.555,0A7.448,7.448,0,0,1,6.3,7.883a7.275,7.275,0,0,1,7.055,2.775,3.617,3.617,0,0,1,.232.323,1.043,1.043,0,0,1,.071.174" transform="translate(0 -0.001)" fill="#4abab9"/>
        <path id="Path_1087" data-name="Path 1087" d="M28.924,406.735H12.932c-1.317,0-1.775-.459-1.775-1.778q0-2.874,0-5.747a1.4,1.4,0,0,1,1.57-1.582q16.191,0,32.382,0a1.4,1.4,0,0,1,1.574,1.576q.008,2.93,0,5.861c0,1.163-.5,1.669-1.655,1.669q-8.053,0-16.106,0m-12.543-6.527a2.05,2.05,0,0,0-1.8,1.355,1.866,1.866,0,0,0,.655,2.076,1.724,1.724,0,0,0,2.156-.07,1.655,1.655,0,0,1,1.466-.478c.3.009.606.013.908,0a.9.9,0,0,0,.935-.928.889.889,0,0,0-.92-.884c-.472-.02-.95.03-1.417-.021a2.094,2.094,0,0,1-.705-.316c-.431-.236-.853-.487-1.279-.731m17.55,2.208c0-.531.014-1.062,0-1.592a.866.866,0,0,0-.921-.93.85.85,0,0,0-.889.9q-.029,1.563,0,3.127a.9.9,0,0,0,.918.952.929.929,0,0,0,.894-.981c.015-.492,0-.986,0-1.478m2.28-.075c0,.531-.016,1.062,0,1.592a.9.9,0,1,0,1.809.008q.028-1.563,0-3.128a.9.9,0,1,0-1.81-.008c-.019.511,0,1.023,0,1.535m5.92.032q0-.711,0-1.422c0-.038,0-.076,0-.114a.879.879,0,0,0-.91-.944.863.863,0,0,0-.905.945q-.023,1.535,0,3.071a.906.906,0,0,0,.9.966.926.926,0,0,0,.908-.967c.016-.511,0-1.023,0-1.535" transform="translate(-10.288 -366.735)" fill="#00172e"/>
        <path id="Path_1088" data-name="Path 1088" d="M333.618,140.359a5.876,5.876,0,0,1,.4,11.673,21.1,21.1,0,0,1-2.666.111c-1.345.017-2.69,0-4.185,0a13.6,13.6,0,0,0,6.446-11.789" transform="translate(-301.754 -129.455)" fill="#4abab9"/>
        <path id="Path_1089" data-name="Path 1089" d="M184.9,158.821a1.807,1.807,0,1,1-3.613-.027,1.806,1.806,0,0,1,3.613.027" transform="translate(-167.199 -144.817)"/>
        <rect id="Rectangle_4461" data-name="Rectangle 4461" width="1.765" height="4.485" transform="translate(17.745 24.555)" fill="#00172e"/>
      </g>
    </g>
  </g>
</svg>
