<svg id="Group_11776" data-name="Group 11776" xmlns="http://www.w3.org/2000/svg" xmlns:xlink="http://www.w3.org/1999/xlink" width="35.198" height="40" viewBox="0 0 35.198 40">
  <defs>
    <clipPath id="clip-path">
      <rect id="Rectangle_4469" data-name="Rectangle 4469" width="35.198" height="40" fill="none"/>
    </clipPath>
  </defs>
  <g id="Group_11776-2" data-name="Group 11776" clip-path="url(#clip-path)">
    <path id="Path_1095" data-name="Path 1095" d="M153.189,7.586h-6.1a.741.741,0,0,1-.741-.741V.743A.741.741,0,0,1,147.61.219l6.1,6.1a.741.741,0,0,1-.524,1.264" transform="translate(-124.184 -0.001)" fill="#4abab9"/>
    <path id="Path_1096" data-name="Path 1096" d="M8.572,42.156a1.5,1.5,0,0,1-1.5-1.5V27.776a1.5,1.5,0,0,1,1.5-1.5H28.5V18.1a1.245,1.245,0,0,0-1.245-1.245H21.283a1.412,1.412,0,0,1-1.412-1.412V9.466a1.245,1.245,0,0,0-1.245-1.245H1.383A1.383,1.383,0,0,0,0,9.6V45.592a1.384,1.384,0,0,0,1.384,1.384H27.119A1.384,1.384,0,0,0,28.5,45.592V42.156ZM2.716,16.517a1.146,1.146,0,0,1,1.146-1.146H13.9a1.146,1.146,0,1,1,0,2.291H3.862A1.146,1.146,0,0,1,2.716,16.517Zm0,5.452h0a1.146,1.146,0,0,1,1.146-1.146h20.78a1.146,1.146,0,0,1,0,2.291H3.862a1.146,1.146,0,0,1-1.146-1.146" transform="translate(0 -6.976)" fill="#4abab9"/>
    <path id="Path_1097" data-name="Path 1097" d="M79.075,133.7h-24.1a1.5,1.5,0,0,0-1.5,1.5v10.982a1.5,1.5,0,0,0,1.5,1.5h24.1a1.5,1.5,0,0,0,1.5-1.5V135.2a1.5,1.5,0,0,0-1.5-1.5M62.3,144.65a3.963,3.963,0,0,1-2.6.737,4.727,4.727,0,0,1-2.642-.648A2.77,2.77,0,0,1,56.1,143.7l1.715-1.092a1.838,1.838,0,0,0,.743.743,2.581,2.581,0,0,0,1.162.222q1.181,0,1.181-.9a.76.76,0,0,0-.209-.572,1.585,1.585,0,0,0-.705-.33q-1.181-.292-1.607-.438a3.892,3.892,0,0,1-.794-.375,2.4,2.4,0,0,1-1.054-2.172,2.6,2.6,0,0,1,.813-2.07A3.485,3.485,0,0,1,59.7,136a3.348,3.348,0,0,1,3.175,1.6l-1.664,1.054a2.111,2.111,0,0,0-.679-.66,1.8,1.8,0,0,0-.87-.191q-.978,0-.978.826a.818.818,0,0,0,.324.7,3.819,3.819,0,0,0,1.238.47q.864.216,1.207.343a3.707,3.707,0,0,1,.686.343,2.3,2.3,0,0,1,.915,2.083,2.592,2.592,0,0,1-.762,2.083m7.735,0a3.963,3.963,0,0,1-2.6.737,4.727,4.727,0,0,1-2.642-.648,2.77,2.77,0,0,1-.953-1.042l1.715-1.092a1.837,1.837,0,0,0,.743.743,2.581,2.581,0,0,0,1.162.222q1.181,0,1.181-.9a.759.759,0,0,0-.209-.572,1.585,1.585,0,0,0-.705-.33q-1.181-.292-1.607-.438a3.892,3.892,0,0,1-.794-.375,2.4,2.4,0,0,1-1.054-2.172,2.6,2.6,0,0,1,.813-2.07A3.485,3.485,0,0,1,67.439,136a3.348,3.348,0,0,1,3.175,1.6l-1.664,1.054a2.111,2.111,0,0,0-.679-.66,1.8,1.8,0,0,0-.87-.191q-.978,0-.978.826a.818.818,0,0,0,.324.7,3.819,3.819,0,0,0,1.238.47q.864.216,1.207.343a3.707,3.707,0,0,1,.686.343,2.3,2.3,0,0,1,.915,2.083,2.591,2.591,0,0,1-.762,2.083m7.925.572H72.024v-9.069h2.261v7.24h3.671Z" transform="translate(-45.378 -113.454)" fill="#00172e"/>
  </g>
</svg>
